<svg style="position: absolute; width: 0; height: 0; overflow: hidden;" version="1.1" xmlns="http://www.w3.org/2000/svg" xmlns:xlink="http://www.w3.org/1999/xlink">
<defs>
<symbol id="bowls-and-cups" viewBox="0 0 60 60">
<title>bowls-and-cups</title>
<path d="M59.985 39.8551L57.1255 20.6441C57.0792 15.0657 53.693 9.89303 47.8159 6.43765C42.9483 3.57605 36.6213 2 30.0001 2C23.3786 2 17.0515 3.57605 12.1838 6.43765C6.3069 9.89303 2.92054 15.0657 2.87437 20.6441L0.0148828 39.8551C0.00503905 39.9216 0 39.9887 0 40.056C0 45.7049 3.76452 50.936 10.3284 54.408C15.7022 57.2504 22.6883 58.8158 30.0001 58.8158C37.3116 58.8158 44.2978 57.2504 49.6716 54.408C56.2354 50.936 60 45.7049 60 40.056C59.9999 39.9888 59.9949 39.9216 59.985 39.8551ZM13.5668 8.78995C18.0215 6.17105 23.8576 4.72871 30.0001 4.72871C36.1424 4.72871 41.9785 6.17105 46.4331 8.78995C51.4956 11.7663 54.3993 16.1293 54.3993 20.7599C54.3993 25.3906 51.4957 29.7535 46.4332 32.7299C41.9785 35.3488 36.1424 36.7911 30.0001 36.7911C23.8577 36.7911 18.0215 35.3488 13.5669 32.7299C8.5044 29.7536 5.60073 25.3906 5.60073 20.7599C5.60073 16.1293 8.50428 11.7664 13.5668 8.78995ZM48.3956 51.996C43.4079 54.6342 36.875 56.0871 30.0001 56.0871C23.125 56.0871 16.592 54.6342 11.6044 51.996C6.00374 49.0333 2.77453 44.7218 2.72917 40.1535L4.60757 27.5342C6.17225 30.4612 8.75283 33.0645 12.1841 35.0819C17.0517 37.9434 23.3787 39.5195 30.0001 39.5195C36.6213 39.5195 42.9485 37.9434 47.816 35.0819C51.2473 33.0645 53.8279 30.461 55.3925 27.5342L57.2709 40.1535C57.2255 44.7219 53.9963 49.0335 48.3956 51.996Z" />
<path d="M30.0001 34.0618C39.3534 34.0618 47.6079 30.4427 50.5397 25.0569C51.29 23.6803 51.6707 22.2344 51.6707 20.7599C51.6707 17.0676 49.3194 13.652 45.0502 11.1422C41.0085 8.76631 35.6637 7.45791 30.0001 7.45791C24.3366 7.45791 18.9916 8.76643 14.9501 11.1423C10.6807 13.6521 8.32945 17.0676 8.32945 20.76C8.32945 22.2347 8.70996 23.6804 9.46008 25.0563C12.3923 30.4427 20.6467 34.0618 30.0001 34.0618ZM30.0001 31.3332C22.1546 31.3332 15.0282 28.5145 12.2557 24.4006C15.0293 20.2891 22.1568 17.4732 30.0001 17.4732C37.8435 17.4732 44.9711 20.2891 47.7446 24.4008C44.9726 28.5145 37.8458 31.3332 30.0001 31.3332ZM11.0579 20.76C11.058 18.0744 12.9313 15.4942 16.3328 13.4945C19.9617 11.3613 24.8154 10.1865 30 10.1865C35.1845 10.1865 40.0384 11.3613 43.6672 13.4946C47.0687 15.4942 48.9421 18.0743 48.9421 20.76C48.9421 20.9993 48.9259 21.238 48.896 21.4761C45.1332 17.3699 37.9658 14.7446 30 14.7446C22.0342 14.7446 14.8669 17.37 11.1041 21.4761C11.0738 21.2386 11.0584 20.9994 11.0579 20.76Z" />
<path d="M30 41.7701C29.8155 41.7701 29.6329 41.8076 29.4633 41.8801C29.2936 41.9527 29.1405 42.059 29.0131 42.1924C28.1243 43.1235 25.225 46.3365 25.225 48.5916C25.225 51.2246 27.367 53.3666 30 53.3666C32.633 53.3666 34.775 51.2246 34.775 48.5916C34.775 46.3365 31.8756 43.1235 30.987 42.1924C30.8595 42.059 30.7064 41.9527 30.5368 41.8801C30.3671 41.8076 30.1845 41.7701 30 41.7701ZM30 50.6381C28.8716 50.6381 27.9536 49.7201 27.9536 48.5917C27.9536 47.986 28.9058 46.5224 30 45.1941C31.0943 46.5226 32.0465 47.986 32.0465 48.5917C32.0465 49.7201 31.1284 50.6381 30 50.6381Z" />
<path d="M23.8843 23.8977H23.4637C22.7102 23.8977 22.0994 24.5085 22.0994 25.262C22.0994 26.0155 22.7102 26.6263 23.4637 26.6263H23.8843C24.6378 26.6263 25.2486 26.0155 25.2486 25.262C25.2486 24.5085 24.6378 23.8977 23.8843 23.8977Z"/>
<path d="M40.074 23.8977H30.342C29.5884 23.8977 28.9777 24.5085 28.9777 25.262C28.9777 26.0155 29.5884 26.6263 30.342 26.6263H40.074C40.8275 26.6263 41.4383 26.0155 41.4383 25.262C41.4383 24.5085 40.8275 23.8977 40.074 23.8977Z"/>
</symbol>
<symbol id="collars-leashes" viewBox="0 0 60 60">
<title><collars-leashes></collars-leashes></title>
<path d="M57.297 10.2511C55.7379 8.99675 53.5393 7.88136 50.7617 6.93613C45.1984 5.04273 37.825 4 29.9997 4C22.1744 4 14.8011 5.04285 9.23787 6.93613C6.4603 7.88136 4.26163 8.99675 2.70257 10.2511C0.909373 11.6942 0 13.2863 0 14.983V28.0989C0 29.7957 0.909373 31.3878 2.70269 32.8308C4.26175 34.0851 6.4603 35.2005 9.23799 36.1458C14.5225 37.9443 21.4409 38.9745 28.8281 39.0733V43.7755H24.7869C24.3392 41.4099 22.2567 39.6156 19.7629 39.6156C16.9435 39.6156 14.6499 41.9093 14.6499 44.7284C14.6499 45.9542 15.0847 47.1148 15.8539 48.0249C15.075 48.9466 14.6484 50.1147 14.6499 51.3214C14.6499 54.1407 16.9435 56.4343 19.7629 56.4343C22.2567 56.4343 24.3392 54.6398 24.7869 52.2744H35.2131C35.6608 54.6399 37.7433 56.4343 40.2371 56.4343C43.0565 56.4343 45.3501 54.1406 45.3501 51.3214C45.3501 50.0956 44.9153 48.935 44.1461 48.0249C44.925 47.1032 45.3516 45.9351 45.3501 44.7284C45.3501 41.9091 43.0565 39.6156 40.2371 39.6156C37.7433 39.6156 35.6608 41.41 35.2131 43.7755H31.1719V39.0733C38.5591 38.9745 45.4775 37.9443 50.762 36.1458C53.5396 35.2005 55.7382 34.0851 57.2973 32.8308C59.0906 31.3878 60 29.7957 60 28.0989V14.983C59.9996 13.2863 59.0903 11.6942 57.297 10.2511ZM36.3022 46.1193C36.4615 46.1193 36.6191 46.0868 36.7655 46.0238C36.9118 45.9608 37.0438 45.8686 37.1533 45.7528C37.2628 45.6371 37.3476 45.5003 37.4024 45.3507C37.4573 45.2011 37.481 45.0419 37.4723 44.8828C37.4694 44.8314 37.4679 44.78 37.4677 44.7286C37.4677 43.2016 38.71 41.9594 40.2369 41.9594C41.7639 41.9594 43.0062 43.2017 43.0062 44.7286C43.0062 45.6643 42.5377 46.5303 41.753 47.0453C41.5905 47.152 41.4571 47.2974 41.3648 47.4684C41.2725 47.6394 41.2242 47.8307 41.2242 48.025C41.2242 48.2194 41.2725 48.4107 41.3648 48.5817C41.4571 48.7527 41.5905 48.8981 41.753 49.0047C42.5377 49.5198 43.0062 50.3858 43.0062 51.3215C43.0062 52.8485 41.7639 54.0906 40.2369 54.0906C38.71 54.0906 37.4677 52.8483 37.4677 51.3215C37.4677 51.2697 37.4696 51.2184 37.4723 51.1673C37.4811 51.0082 37.4574 50.8489 37.4026 50.6993C37.3478 50.5497 37.263 50.4128 37.1535 50.297C37.044 50.1813 36.912 50.0891 36.7656 50.0261C36.6192 49.9631 36.4615 49.9307 36.3022 49.9307H23.6975C23.5382 49.9308 23.3805 49.9633 23.2342 50.0263C23.0878 50.0893 22.9559 50.1815 22.8463 50.2972C22.7368 50.413 22.6521 50.5498 22.5972 50.6994C22.5424 50.849 22.5186 51.0082 22.5274 51.1673C22.5301 51.2184 22.5319 51.2697 22.5319 51.3215C22.5319 52.8485 21.2896 54.0906 19.7627 54.0906C18.2357 54.0906 16.9934 52.8483 16.9934 51.3215C16.9934 50.3858 17.462 49.5198 18.2466 49.0047C18.4091 48.8981 18.5425 48.7527 18.6348 48.5817C18.7271 48.4107 18.7755 48.2194 18.7755 48.025C18.7755 47.8307 18.7271 47.6394 18.6348 47.4684C18.5425 47.2974 18.4091 47.152 18.2466 47.0453C17.462 46.5303 16.9934 45.6643 16.9934 44.7286C16.9934 43.2016 18.2357 41.9594 19.7627 41.9594C21.2896 41.9594 22.5319 43.2017 22.5319 44.7286C22.5319 44.7803 22.5301 44.8317 22.5274 44.8828C22.5185 45.0419 22.5422 45.2011 22.597 45.3508C22.6519 45.5004 22.7366 45.6373 22.8462 45.753C22.9557 45.8688 23.0877 45.961 23.2341 46.0239C23.3804 46.0869 23.5381 46.1194 23.6975 46.1193H36.3022ZM29.9998 36.7383C28.4435 36.7383 27.1772 35.472 27.1772 33.9157C27.1772 32.3593 28.4435 31.0931 29.9998 31.0931C31.5562 31.0931 32.8224 32.3593 32.8224 33.9157C32.8224 35.472 31.5562 36.7383 29.9998 36.7383ZM57.6559 28.0989C57.6559 31.8067 48.3045 35.8985 34.3965 36.6248C34.9005 35.8111 35.1671 34.8727 35.1661 33.9156C35.1661 33.5463 35.1264 33.1862 35.0525 32.8386C39.6006 32.5404 43.8255 31.8617 47.3495 30.8562C47.9718 30.6785 48.3325 30.0301 48.1548 29.4077C47.9772 28.7853 47.329 28.4248 46.7064 28.6024C43.0899 29.6344 38.6789 30.3074 33.9211 30.5577C32.9729 29.4519 31.5673 28.7494 29.9998 28.7494C28.4241 28.7494 27.0118 29.4593 26.0634 30.5753C22.8385 30.4214 19.7739 30.0771 16.9503 29.5459C16.3149 29.426 15.7017 29.8448 15.582 30.4808C15.4624 31.1169 15.881 31.7294 16.5171 31.8492C19.1492 32.3444 21.9775 32.6832 24.9418 32.8625C24.8698 33.2089 24.8335 33.5619 24.8336 33.9157C24.8327 34.8729 25.0993 35.8112 25.6033 36.6249C11.6952 35.8986 2.34375 31.8068 2.34375 28.0989V19.4139L2.35968 19.4272C2.47205 19.5254 2.58637 19.6213 2.70257 19.7149C2.85923 19.8402 3.01885 19.9617 3.18128 20.0794L3.18374 20.0811C3.27117 20.1448 3.36035 20.2081 3.45117 20.271L3.49171 20.2989C3.57714 20.3576 3.66374 20.4161 3.7521 20.4741C3.76991 20.4858 3.7882 20.4975 3.80624 20.5092C3.89542 20.5672 3.98566 20.6251 4.07777 20.6824L4.11749 20.7068C5.50241 21.5632 7.21592 22.3418 9.23776 23.0299C14.801 24.9233 22.1743 25.9661 29.9997 25.9661C37.8251 25.9661 45.1984 24.9233 50.7617 23.0299C52.7837 22.3418 54.4974 21.5631 55.8824 20.7066L55.9216 20.6825C56.0139 20.6251 56.1042 20.5672 56.1935 20.5091L56.2474 20.4742C56.3358 20.4162 56.4225 20.3577 56.5079 20.299L56.5485 20.2711C56.6393 20.2082 56.7285 20.1449 56.8159 20.0813L56.8184 20.0795C56.9808 19.9619 57.1404 19.8403 57.2971 19.715C57.4132 19.6214 57.5276 19.5255 57.64 19.4274L57.6559 19.414V28.0989ZM7.52928 19.8543C8.5501 19.3876 9.94639 18.8517 11.8024 18.3313C16.8453 16.9173 23.3081 16.1387 29.9998 16.1387C36.6916 16.1387 43.1543 16.9174 48.1971 18.3313C50.0533 18.8516 51.4497 19.3875 52.4704 19.8543C47.6207 22.0156 39.6821 23.6224 29.9998 23.6224C20.3176 23.6224 12.379 22.0154 7.52928 19.8543ZM57.6485 15.1548C57.6434 15.2232 57.6352 15.2913 57.624 15.359L57.6225 15.3696C57.6098 15.4416 57.594 15.5129 57.575 15.5835C57.5616 15.6345 57.5465 15.6851 57.53 15.7353L57.5204 15.7647C57.4946 15.839 57.4658 15.9122 57.4342 15.9843C57.4218 16.0128 57.4083 16.0411 57.3948 16.0696C57.3679 16.1263 57.3395 16.1828 57.3088 16.2387L57.3006 16.2537C56.813 17.1338 55.8925 17.9036 54.9784 18.5047C53.7646 17.8055 51.8179 16.9124 48.8301 16.0746C43.587 14.6046 36.8997 13.7952 29.9999 13.7952C23.1002 13.7952 16.413 14.6047 11.1697 16.0747C8.18202 16.9124 6.23542 17.8055 5.02147 18.5049C4.10753 17.9038 3.18703 17.1339 2.69929 16.2538L2.69109 16.2388C2.66039 16.1828 2.63203 16.1263 2.60496 16.0695C2.5916 16.0411 2.57812 16.0129 2.56582 15.9845C2.55527 15.9606 2.54531 15.9366 2.53546 15.9126C2.51542 15.8633 2.49632 15.8141 2.47945 15.7649C2.47605 15.7552 2.473 15.7452 2.46972 15.7355C2.44857 15.6715 2.42993 15.6068 2.41382 15.5414C2.39958 15.4847 2.38738 15.4275 2.37726 15.3699L2.37574 15.3592C2.36456 15.2915 2.35638 15.2234 2.35125 15.1551C2.34653 15.0978 2.34403 15.0404 2.34375 14.983C2.34375 10.8967 13.7017 6.34375 29.9998 6.34375C46.298 6.34375 57.6559 10.8967 57.6559 14.983C57.6559 15.0402 57.6529 15.0975 57.6485 15.1548Z" />
<path d="M48.1765 11.6432C48.1309 11.4162 48.0197 11.2076 47.8567 11.0432C47.8022 10.989 47.7425 10.9404 47.6785 10.8979C47.5506 10.8129 47.4073 10.7536 47.2567 10.7233C47.1055 10.6928 46.9497 10.6928 46.7985 10.7233C46.7235 10.7385 46.6509 10.7608 46.5794 10.7901C46.5091 10.8194 46.4411 10.8557 46.3778 10.8979C46.3134 10.9401 46.2536 10.9893 46.1985 11.0432C46.1446 11.0971 46.0966 11.1581 46.0533 11.2213C45.9683 11.3493 45.909 11.4926 45.8787 11.6432C45.8635 11.7194 45.8564 11.7956 45.8564 11.8717C45.8564 11.9491 45.8636 12.0252 45.8787 12.1014C45.909 12.252 45.9683 12.3953 46.0533 12.5233C46.0966 12.5866 46.1446 12.6463 46.1985 12.7014C46.2537 12.7553 46.3135 12.8034 46.3778 12.8467C46.4411 12.8889 46.5091 12.9252 46.5794 12.9545C46.6509 12.9838 46.7236 13.0061 46.7985 13.0213C46.8747 13.0366 46.9521 13.0448 47.0282 13.0448C47.1044 13.0448 47.1818 13.0366 47.2567 13.0213C47.3317 13.0061 47.4057 12.9838 47.4759 12.9545C47.5462 12.9252 47.6141 12.8889 47.6785 12.8467C47.7418 12.8034 47.8028 12.7553 47.8567 12.7014C47.9106 12.6463 47.9598 12.5866 48.002 12.5233C48.087 12.3953 48.1463 12.252 48.1765 12.1014C48.1919 12.0252 48.2 11.9491 48.2 11.8717C48.2 11.7954 48.1919 11.7193 48.1765 11.6432Z" />
<path d="M43.4829 9.86056C39.4455 9.10095 34.85 8.69935 30.1935 8.69935C23.7488 8.69935 17.5185 9.46435 12.6504 10.8536C12.0282 11.0313 11.6675 11.6797 11.8451 12.302C11.9918 12.8171 12.4611 13.1527 12.9713 13.1527C13.0777 13.1527 13.186 13.1382 13.2934 13.1075C17.9582 11.7763 23.96 11.0432 30.1934 11.0432C34.707 11.0432 39.1525 11.4308 43.0495 12.164C43.6858 12.2834 44.2981 11.8651 44.4179 11.229C44.5376 10.5929 44.1189 9.98044 43.4829 9.86056Z" />
<path d="M14.121 29.6092C14.1058 29.5342 14.0835 29.4604 14.0542 29.3889C14.0249 29.3186 13.9886 29.2506 13.9464 29.1873C13.9038 29.1231 13.8547 29.0634 13.7999 29.0092C13.746 28.9553 13.6862 28.9061 13.6218 28.8627C13.5585 28.8205 13.4905 28.7854 13.4201 28.7561C13.3495 28.7265 13.2761 28.7041 13.201 28.6893C13.0498 28.6588 12.8941 28.6588 12.7429 28.6893C12.6678 28.7033 12.5939 28.7268 12.5237 28.7561C12.4523 28.7854 12.3843 28.8205 12.321 28.8627C12.2566 28.9061 12.1968 28.9553 12.1429 29.0092C12.089 29.0631 12.0398 29.1229 11.9976 29.1873C11.9554 29.2506 11.9191 29.3186 11.8898 29.3889C11.8605 29.4604 11.8382 29.5342 11.823 29.6092C11.8077 29.6842 11.7995 29.7615 11.7995 29.8377C11.8003 29.9914 11.8309 30.1434 11.8898 30.2854C11.9191 30.3568 11.9554 30.4248 11.9976 30.4881C12.0398 30.5525 12.089 30.6122 12.1429 30.6662C12.1968 30.7201 12.2566 30.7693 12.321 30.8115C12.3843 30.8549 12.4523 30.8901 12.5237 30.9193C12.5941 30.9486 12.6678 30.9721 12.7429 30.9861C12.8179 31.0014 12.8952 31.0096 12.9713 31.0096C13.0475 31.0096 13.1249 31.0014 13.201 30.9861C13.2761 30.9713 13.3495 30.9489 13.4201 30.9193C13.4909 30.8905 13.5585 30.8543 13.6218 30.8115C13.686 30.7693 13.7457 30.7206 13.7999 30.6662C13.9092 30.5575 13.9957 30.428 14.0542 30.2854C14.1134 30.1436 14.1436 29.9914 14.1432 29.8377C14.1432 29.7614 14.1361 29.6842 14.121 29.6092Z" />
</symbol>
<symbol id="medicines" viewBox="0 0 60 60">
<title>medicines</title>
<path d="M59.6564 15.8985L44.1014 0.343125C43.6438 -0.114375 42.902 -0.114375 42.444 0.343125L38.3014 4.48547C38.0817 4.70525 37.9582 5.00331 37.9582 5.3141C37.9582 5.62489 38.0817 5.92295 38.3014 6.14273L43.2225 11.0637L38.5636 15.7226L31.3925 8.55152C30.9348 8.09391 30.1929 8.09402 29.7351 8.55152L24.9767 13.3099C24.757 13.5297 24.6336 13.8278 24.6336 14.1386C24.6336 14.4493 24.757 14.7474 24.9767 14.9672L26.488 16.4784L7.06509 35.902C5.28032 37.6868 5.28032 40.5911 7.06509 42.3762L8.5563 43.8674L5.82208 46.6016C5.71325 46.7104 5.62692 46.8396 5.56802 46.9818C5.50912 47.124 5.47881 47.2763 5.47881 47.4302C5.47881 47.5841 5.50912 47.7365 5.56802 47.8787C5.62692 48.0209 5.71325 48.1501 5.82208 48.2589L7.95278 50.3897L0.343213 57.9991C-0.114404 58.4568 -0.114404 59.1988 0.343213 59.6565C0.57208 59.8854 0.871963 59.9998 1.17185 59.9998C1.47173 59.9998 1.77173 59.8854 2.00048 59.6565L9.61017 52.0468L11.741 54.1777C11.9608 54.3974 12.2588 54.5208 12.5696 54.5208C12.8804 54.5208 13.1785 54.3974 13.3983 54.1777L16.1325 51.4434L17.6237 52.9347C18.4883 53.7993 19.638 54.2754 20.8608 54.2754C22.0835 54.2754 23.2332 53.7993 24.0978 52.9347L43.5209 33.5116L45.0322 35.0229C45.1409 35.1319 45.2701 35.2183 45.4123 35.2772C45.5545 35.3361 45.7069 35.3663 45.8608 35.3661C46.1608 35.3661 46.4606 35.2518 46.6895 35.0229L51.4477 30.2645C51.6675 30.0447 51.7909 29.7466 51.7909 29.4359C51.7909 29.1251 51.6675 28.827 51.4477 28.6072L44.2767 21.4362L48.9356 16.7773L53.8565 21.6982C53.9652 21.8072 54.0944 21.8936 54.2366 21.9525C54.3788 22.0114 54.5312 22.0416 54.6852 22.0414C54.9852 22.0414 55.2849 21.9271 55.5138 21.6982L59.6563 17.5557C60.1141 17.0982 60.1141 16.3562 59.6564 15.8985ZM24.7358 21.546L30.1576 26.9678C30.2663 27.0768 30.3954 27.1632 30.5376 27.2221C30.6799 27.281 30.8323 27.3112 30.9862 27.311C31.2862 27.311 31.586 27.1966 31.8149 26.9678C32.2725 26.5102 32.2725 25.7681 31.8149 25.3105L26.3931 19.8887L28.1454 18.1364L38.234 28.2251L32.8747 33.5844L22.7859 23.4956L24.7358 21.546ZM12.5696 51.6916L8.30798 47.4301L10.2137 45.5246L14.4751 49.7861L12.5696 51.6916ZM22.4403 51.2773C21.5694 52.1482 20.152 52.1483 19.2811 51.2773L8.72235 40.7187C7.8513 39.8476 7.8513 38.4302 8.72235 37.5593L10.3916 35.8901L13.2772 38.7757C13.5061 39.0046 13.8059 39.1189 14.1058 39.1189C14.4057 39.1189 14.7057 39.0046 14.9345 38.7757C15.3921 38.3181 15.3921 37.5761 14.9345 37.1183L12.0488 34.2327L13.9774 32.304L19.3991 37.7257C19.6279 37.9546 19.9278 38.0689 20.2277 38.0689C20.5276 38.0689 20.8276 37.9545 21.0563 37.7257C21.514 37.2681 21.514 36.5261 21.0563 36.0684L15.6345 30.6466L17.5632 28.718L20.4488 31.6036C20.6777 31.8325 20.9776 31.9468 21.2775 31.9468C21.5774 31.9468 21.8774 31.8325 22.1061 31.6036C22.5637 31.146 22.5637 30.4039 22.1061 29.9462L19.2205 27.0606L21.1281 25.153L31.2168 35.2417L23.596 42.8626C23.1384 43.3202 23.1384 44.0623 23.596 44.52C23.8249 44.7489 24.1248 44.8632 24.4247 44.8632C24.7245 44.8632 25.0245 44.7487 25.2533 44.52L32.8741 36.8991L34.8459 38.8709L22.4403 51.2773ZM36.5041 37.2137L34.5323 35.2417L39.8917 29.8822L41.8634 31.854L36.5041 37.2137ZM48.9618 29.4359L45.8608 32.5369L27.4627 14.1389L30.5638 11.0379L48.9618 29.4359ZM42.6195 19.7789L40.2208 17.3802L44.8797 12.7212L47.2784 15.1199L42.6195 19.7789ZM54.6855 19.2123L40.7875 5.31422L43.2727 2.82902L57.1707 16.727L54.6855 19.2123Z" />
<path d="M22.3156 46.7207C22.3016 46.6457 22.2781 46.5719 22.2488 46.5016C22.2197 46.4306 22.1836 46.3627 22.141 46.2988C22.0988 46.2344 22.0496 46.1746 21.9957 46.1207C21.9418 46.0668 21.882 46.0176 21.8176 45.9754C21.7537 45.9328 21.6858 45.8967 21.6148 45.8676C21.5445 45.8383 21.4707 45.816 21.3957 45.8008C21.2449 45.7703 21.0895 45.7703 20.9387 45.8008C20.8637 45.816 20.7898 45.8383 20.7195 45.8676C20.648 45.8969 20.5801 45.9332 20.5168 45.9754C20.4523 46.0176 20.3926 46.0668 20.3387 46.1207C20.2848 46.1746 20.2355 46.2344 20.1934 46.2988C20.1512 46.362 20.1148 46.4301 20.0855 46.5016C20.0562 46.5719 20.0328 46.6457 20.0187 46.7207C20.0035 46.7957 19.9953 46.8731 19.9953 46.9492C19.9953 47.0254 20.0035 47.1028 20.0187 47.1789C20.0328 47.2528 20.0562 47.3266 20.0855 47.3981C20.1148 47.4684 20.1512 47.5364 20.1934 47.5996C20.2355 47.6641 20.2848 47.7239 20.3387 47.7778C20.4474 47.8871 20.5769 47.9735 20.7195 48.0321C20.8613 48.0913 21.0135 48.1216 21.1672 48.1211C21.3208 48.1216 21.473 48.0913 21.6148 48.0321C21.7575 47.9735 21.887 47.8871 21.9957 47.7778C22.0496 47.7239 22.0988 47.6641 22.141 47.5996C22.1832 47.5364 22.2195 47.4684 22.2488 47.3981C22.2781 47.3266 22.3016 47.2528 22.3156 47.1789C22.3309 47.1028 22.3391 47.0254 22.3391 46.9492C22.3391 46.8731 22.3309 46.7957 22.3156 46.7207Z" />
</symbol>
<symbol id="pet-food" viewBox="0 0 60 60">
<title>pet-food</title>
<path d="M52.8978 25.4978L47.1429 9.7473V1.42852C47.1429 0.639609 46.5032 0 45.7144 0H14.2858C13.4969 0 12.8573 0.639727 12.8573 1.42852V9.74719L7.10214 25.4978C6.41927 27.3636 6.07039 29.335 6.07147 31.3219V55.0765C6.07147 57.7913 8.28011 60 10.995 60H49.005C51.7199 60 53.9285 57.7913 53.9285 55.0765V31.3219C53.9285 29.329 53.5817 27.3694 52.8978 25.4978ZM15.7142 2.85715H44.2857V8.57145H15.7142V2.85715ZM51.0715 50.1321H30.9077C30.1188 50.1321 29.4792 50.7718 29.4792 51.5606C29.4792 52.3495 30.1189 52.9891 30.9077 52.9891H51.0715V55.0763C51.0715 56.2157 50.1445 57.1427 49.005 57.1427H10.995C9.85558 57.1427 8.92862 56.2158 8.92862 55.0763V31.3219C8.92774 29.6695 9.21788 28.03 9.78573 26.4783L15.2848 11.4286H44.7152L50.2142 26.4783C50.7821 28.03 51.0722 29.6695 51.0714 31.3219L51.0715 50.1321Z" />
<path d="M35.6169 33.805C35.1505 30.8772 32.6078 28.632 29.5505 28.632C26.4932 28.632 23.9504 30.8772 23.484 33.805C21.067 34.7989 19.4857 37.2756 19.6899 39.9659C19.9175 42.9637 22.3506 45.392 25.349 45.6148C26.5071 45.7011 27.6572 45.4628 28.6751 44.9259C29.2315 44.6328 29.8697 44.6326 30.4256 44.926C31.3085 45.3908 32.2914 45.6331 33.2891 45.632C33.4429 45.632 33.5974 45.6263 33.7516 45.6149C36.7502 45.3923 39.1832 42.9638 39.411 39.966C39.6152 37.2756 38.0339 34.7989 35.6169 33.805ZM36.562 39.7495C36.4405 41.35 35.1415 42.6466 33.5402 42.7655C32.9176 42.8126 32.3013 42.6851 31.7586 42.3986C31.0781 42.0394 30.3201 41.8517 29.5506 41.8517C28.781 41.8517 28.0231 42.0394 27.3425 42.3986C26.7999 42.6849 26.1849 42.8123 25.5608 42.7655C23.9597 42.6467 22.6606 41.3501 22.5391 39.7495C22.4143 38.1062 23.5296 36.6124 25.1331 36.2746C25.4588 36.206 25.7503 36.0259 25.9573 35.7653C26.1643 35.5047 26.2739 35.18 26.2671 34.8473L26.2648 34.775C26.2648 32.9632 27.7386 31.4893 29.5505 31.4893C31.3623 31.4893 32.8362 32.9632 32.8362 34.7698L32.834 34.8473C32.827 35.1801 32.9366 35.5048 33.1436 35.7654C33.3507 36.026 33.6423 36.2061 33.968 36.2746C35.5717 36.6124 36.6868 38.1062 36.562 39.7495Z" />
<path d="M29.5506 25.7751C32.1108 25.7751 34.1934 23.6924 34.1934 21.1322C34.1934 18.572 32.1108 16.4893 29.5506 16.4893C26.9904 16.4893 24.9077 18.5721 24.9077 21.1322C24.9077 23.6923 26.9906 25.7751 29.5506 25.7751ZM29.5506 19.3465C30.5353 19.3465 31.3363 20.1475 31.3363 21.1322C31.3363 22.1169 30.5353 22.9179 29.5506 22.9179C28.5659 22.9179 27.7649 22.1169 27.7649 21.1322C27.7649 20.1475 28.566 19.3465 29.5506 19.3465Z" />
<path d="M24.1935 26.6561C24.1935 24.0959 22.1107 22.0132 19.5506 22.0132C16.9905 22.0132 14.9078 24.096 14.9078 26.6561C14.9078 29.2162 16.9904 31.2989 19.5506 31.2989C22.1108 31.2989 24.1935 29.2162 24.1935 26.6561ZM19.5506 28.4418C18.5659 28.4418 17.7649 27.6408 17.7649 26.6561C17.7649 25.6714 18.5659 24.8704 19.5506 24.8704C20.5353 24.8704 21.3363 25.6714 21.3363 26.6561C21.3363 27.6408 20.5352 28.4418 19.5506 28.4418Z" />
<path d="M39.5506 22.0131C36.9904 22.0131 34.9077 24.0959 34.9077 26.656C34.9077 29.216 36.9906 31.2988 39.5506 31.2988C42.1107 31.2988 44.1934 29.2162 44.1934 26.656C44.1934 24.0958 42.1107 22.0131 39.5506 22.0131ZM39.5506 28.4418C38.5658 28.4418 37.7649 27.6408 37.7649 26.6561C37.7649 25.6714 38.5659 24.8704 39.5506 24.8704C40.5353 24.8704 41.3363 25.6714 41.3363 26.6561C41.3363 27.6408 40.5353 28.4418 39.5506 28.4418Z" />
<path d="M24.6934 50.1322H24.3465C23.5576 50.1322 22.918 50.7719 22.918 51.5607C22.918 52.3496 23.5577 52.9892 24.3465 52.9892H24.6934C25.4823 52.9892 26.1219 52.3495 26.1219 51.5607C26.122 50.7719 25.4824 50.1322 24.6934 50.1322Z" />
</symbol>
<symbol id="shampoos" viewBox="0 0 60 60">
<title>Shampoos</title>
<path d="M37.1303 17.1814V11.7391C37.1303 11.0188 36.5463 10.4348 35.826 10.4348H34.8477V1.3043C34.8477 0.583945 34.2637 0 33.5434 0H25.0651C24.3448 0 23.7608 0.583945 23.7608 1.3043V10.4347H22.7825C22.0622 10.4347 21.4782 11.0187 21.4782 11.739V17.1813C16.8977 19.0078 13.6521 23.4879 13.6521 28.712V58.6956C13.6521 59.4159 14.236 59.9999 14.9564 59.9999H43.6521C44.3725 59.9999 44.9564 59.4159 44.9564 58.6956V28.7121C44.9563 23.4879 41.7107 19.0078 37.1303 17.1814ZM26.3694 2.60871H32.239V10.4348H26.3694V2.60871ZM24.0867 13.0434H34.5214V16.3043H24.0867V13.0434ZM42.3476 57.3913H16.2607V28.7121C16.2607 23.3088 20.6565 18.913 26.0597 18.913H32.5486C37.9519 18.913 42.3476 23.3088 42.3476 28.7121V57.3913Z" />
<path d="M37.7825 27.3913H20.8259C20.1056 27.3913 19.5216 27.9752 19.5216 28.6956V52.826C19.5216 53.5464 20.1056 54.1303 20.8259 54.1303H37.7825C38.5028 54.1303 39.0868 53.5464 39.0868 52.826V44.6287C39.0868 43.9084 38.5028 43.3244 37.7825 43.3244C37.0621 43.3244 36.4782 43.9084 36.4782 44.6287V51.5217H22.1303V30H36.4782V34.1287C36.4782 34.8491 37.0621 35.433 37.7825 35.433C38.5028 35.433 39.0868 34.8491 39.0868 34.1287V28.6957C39.0868 27.9752 38.5028 27.3913 37.7825 27.3913Z" />
<path d="M37.7824 38.0645C37.0621 38.0645 36.4781 38.6484 36.4781 39.3688V39.4992C36.4781 40.2195 37.0621 40.8035 37.7824 40.8035C38.5028 40.8035 39.0867 40.2195 39.0867 39.4992V39.3688C39.0867 38.6484 38.5028 38.0645 37.7824 38.0645Z" />
<path d="M27.9922 41.1512C25.8345 41.1512 24.0792 42.9066 24.0792 45.0642C24.0792 47.2219 25.8345 48.9773 27.9922 48.9773C30.1499 48.9773 31.9052 47.2219 31.9052 45.0642C31.9052 42.9067 30.1499 41.1512 27.9922 41.1512ZM27.9922 46.3687C27.273 46.3687 26.6879 45.7835 26.6879 45.0644C26.6879 44.3452 27.273 43.7601 27.9922 43.7601C28.7114 43.7601 29.2965 44.3452 29.2965 45.0644C29.2965 45.7835 28.7115 46.3687 27.9922 46.3687Z" />
<path d="M34.8456 35.9842C34.8456 33.8266 33.0903 32.0712 30.9326 32.0712C28.7749 32.0712 27.0196 33.8266 27.0196 35.9842C27.0196 38.1419 28.7749 39.8973 30.9326 39.8973C33.0901 39.8974 34.8456 38.1419 34.8456 35.9842ZM30.9325 37.2887C30.2133 37.2887 29.6282 36.7035 29.6282 35.9844C29.6282 35.2652 30.2133 34.6801 30.9325 34.6801C31.6517 34.6801 32.2368 35.2652 32.2368 35.9844C32.2368 36.7035 31.6519 37.2887 30.9325 37.2887Z" />
</symbol>
<symbol id="sleeping-area" viewBox="0 0 60 60">
<title>Sleeping area</title>
<path d="M57.9526 19.9663L30.9804 0.226256C30.7796 0.0792462 30.5371 0 30.2882 0C30.0393 0 29.7969 0.0792462 29.5961 0.226256L2.62395 19.9663C2.10176 20.3485 1.9882 21.0818 2.37047 21.6041L5.89582 26.4211C5.98668 26.5453 6.10113 26.6504 6.23263 26.7304C6.36412 26.8104 6.5101 26.8637 6.6622 26.8872C6.8143 26.9107 6.96955 26.9041 7.11908 26.8676C7.26861 26.8311 7.40947 26.7655 7.53363 26.6745L8.59746 25.8959V58.828C8.59746 59.4751 9.12223 59.9998 9.76934 59.9998H50.8691C51.5162 59.9998 52.041 59.4751 52.041 58.828V25.9413L53.0429 26.6745C53.1671 26.7655 53.308 26.831 53.4575 26.8675C53.607 26.904 53.7622 26.9106 53.9143 26.8871C54.0664 26.8636 54.2123 26.8103 54.3438 26.7303C54.4753 26.6504 54.5898 26.5453 54.6806 26.4211L58.206 21.6041C58.5884 21.0816 58.4748 20.3485 57.9526 19.9663ZM49.6972 53.0856H21.9716C21.3245 53.0856 20.7997 53.6103 20.7997 54.2574C20.7997 54.9045 21.3245 55.4293 21.9716 55.4293H49.6972V57.6562H10.9411V25.105H38.3843C39.0314 25.105 39.5562 24.5803 39.5562 23.9332C39.5562 23.2861 39.0314 22.7613 38.3843 22.7613H12.8813L30.2883 10.0213L49.6972 24.226V53.0856ZM53.4814 24.0911L30.9804 7.62348C30.7796 7.47638 30.5372 7.39712 30.2883 7.39719C30.0394 7.39709 29.7969 7.47636 29.5962 7.62348L7.095 24.0911L4.95387 21.1654L30.2884 2.62391L55.6229 21.1654L53.4814 24.0911Z"/>
<path d="M43.7555 23.7046C43.7403 23.6295 43.7168 23.5557 43.6875 23.4842C43.6582 23.4139 43.6219 23.3459 43.5797 23.2826C43.5375 23.2184 43.4888 23.1587 43.4344 23.1045C43.2141 22.8855 42.9165 22.7621 42.6059 22.761C42.2977 22.761 41.9953 22.8864 41.7775 23.1045C41.7236 23.1584 41.6744 23.2182 41.6322 23.2826C41.59 23.3459 41.5537 23.4139 41.5244 23.4842C41.4951 23.5557 41.4716 23.6295 41.4576 23.7046C41.4423 23.7796 41.4341 23.8569 41.4341 23.933C41.4341 24.0092 41.4423 24.0866 41.4576 24.1615C41.4716 24.2364 41.4951 24.3103 41.5244 24.3818C41.5537 24.4523 41.59 24.5202 41.6322 24.5835C41.6744 24.648 41.7236 24.7076 41.7775 24.7616C41.8314 24.8155 41.8912 24.8648 41.9556 24.9069C42.0189 24.949 42.0869 24.9855 42.1583 25.0148C42.2287 25.0441 42.3024 25.0675 42.3775 25.0816C42.4525 25.0968 42.5298 25.1049 42.6059 25.1049C42.6821 25.1049 42.7595 25.0968 42.8344 25.0816C42.9096 25.067 42.983 25.0446 43.0535 25.0148C43.125 24.9855 43.193 24.949 43.2563 24.9069C43.3207 24.8648 43.3804 24.8155 43.4344 24.7616C43.4883 24.7077 43.5375 24.648 43.5797 24.5835C43.6219 24.5202 43.6582 24.4523 43.6875 24.3818C43.7168 24.3105 43.7403 24.2365 43.7555 24.1615C43.7707 24.0865 43.7776 24.0092 43.7776 23.933C43.7776 23.8569 43.7706 23.7795 43.7555 23.7046Z"/>
<path d="M18.8986 54.0281C18.8836 53.9531 18.8612 53.8797 18.8319 53.809C18.8026 53.7386 18.7661 53.6695 18.724 53.6063C18.6815 53.5423 18.6329 53.4826 18.5788 53.4281C18.5249 53.3742 18.465 53.3262 18.4006 53.2828C18.2726 53.1978 18.1294 53.1385 17.9788 53.1082C17.8276 53.0777 17.6718 53.0777 17.5206 53.1082C17.4467 53.1234 17.3729 53.1457 17.3014 53.175C17.2311 53.2043 17.1631 53.2406 17.0999 53.2828C17.0354 53.325 16.9755 53.3742 16.9217 53.4281C16.8667 53.482 16.8186 53.543 16.7753 53.6063C16.6903 53.7342 16.631 53.8775 16.6008 54.0281C16.5854 54.1043 16.5785 54.1805 16.5785 54.2566C16.578 54.4106 16.6082 54.5632 16.6674 54.7054C16.6967 54.7758 16.7332 54.8438 16.7753 54.9081C16.8186 54.9714 16.8667 55.0312 16.9217 55.0862C16.9756 55.1403 17.0355 55.1895 17.0999 55.2315C17.1631 55.2737 17.2311 55.3101 17.3014 55.3394C17.3729 55.3686 17.4467 55.3909 17.5206 55.4061C17.5967 55.4214 17.6741 55.4296 17.7503 55.4296C17.9818 55.4286 18.2079 55.3598 18.4006 55.2315C18.4649 55.1894 18.5246 55.1407 18.5788 55.0862C18.6327 55.0312 18.6819 54.9715 18.724 54.9081C18.8524 54.7151 18.9213 54.4885 18.922 54.2566C18.922 54.1805 18.9138 54.1042 18.8986 54.0281Z"/>
<path d="M44.8447 30.5741C44.8447 29.5803 44.455 28.6476 43.7472 27.9481C43.0462 27.2554 42.0876 26.8676 41.1101 26.876C40.8019 26.8793 40.4954 26.9208 40.1974 26.9997C38.0274 27.5554 35.9072 28.2902 33.8587 29.1966C32.6888 28.9199 31.4906 28.7806 30.2884 28.7813C29.6114 28.7813 28.9285 28.8257 28.258 28.9133C27.7403 28.9816 27.2264 29.0761 26.7183 29.1966C24.6701 28.2903 22.5503 27.5556 20.3806 26.9999C20.3701 26.997 20.3597 26.9942 20.3492 26.9915C19.1958 26.6978 18.0063 26.9619 17.086 27.7171C16.1658 28.472 15.6744 29.5867 15.7376 30.7745C15.8021 31.9938 15.9221 33.2096 16.097 34.418C16.2542 35.5012 16.4549 36.5776 16.6988 37.6446C16.336 38.5729 16.0832 39.5405 15.9456 40.5276C15.8884 40.9397 15.8595 41.3553 15.8591 41.7714C15.8591 47.0173 20.4337 51.2853 26.0568 51.2853H34.5204C37.6026 51.2853 40.4861 50.0035 42.4317 47.7686C44.2147 45.7205 44.9959 43.1486 44.6314 40.5269C44.5529 39.9648 44.4373 39.4085 44.2852 38.8617C44.1699 38.4498 44.0343 38.0438 43.8788 37.6453C44.3946 35.3878 44.716 33.0901 44.8394 30.7777C44.843 30.7091 44.8447 30.6416 44.8447 30.5741ZM42.4988 30.647L42.4985 30.651C42.3761 32.949 42.0461 35.2312 41.5124 37.4697C41.4543 37.7133 41.4758 37.9692 41.5737 38.1997C41.7523 38.6199 41.9037 39.0511 42.0269 39.4907C42.151 39.937 42.2453 40.391 42.3094 40.8497C42.5792 42.7897 41.9946 44.7004 40.6634 46.2296C39.163 47.9529 36.9239 48.9414 34.5198 48.9414H26.0562C21.7256 48.9414 18.2023 45.7249 18.2023 41.7714C18.2023 41.4679 18.224 41.1574 18.2665 40.8496C18.3939 39.938 18.6413 39.0473 19.0023 38.2007C19.1006 37.9699 19.1222 37.7138 19.0641 37.4698C18.7974 36.3508 18.5811 35.2203 18.4159 34.0819C18.2512 32.9439 18.1382 31.799 18.0775 30.6508C18.0543 30.2148 18.2345 29.806 18.5721 29.5289C18.8194 29.326 19.1199 29.2196 19.4291 29.2196C19.5345 29.2196 19.641 29.2319 19.7468 29.2571L19.7701 29.2633C21.9494 29.8194 24.0752 30.5674 26.1225 31.4985C26.3698 31.6112 26.6485 31.6346 26.9111 31.5646C27.4537 31.4199 28.0052 31.3106 28.562 31.2372C29.1312 31.1628 29.712 31.125 30.2877 31.125C31.4355 31.125 32.5714 31.2729 33.6642 31.5646C33.9265 31.6342 34.2049 31.6114 34.452 31.499C36.5066 30.5646 38.6402 29.8145 40.8274 29.2573C40.9275 29.2333 41.03 29.2207 41.1329 29.2196H41.1482C41.4985 29.2196 41.8444 29.3632 42.0992 29.6149C42.2266 29.74 42.3278 29.8892 42.3967 30.0539C42.4657 30.2186 42.501 30.3955 42.5005 30.574C42.5006 30.5983 42.5001 30.6224 42.4988 30.647Z"/>
<path d="M32.4862 43.5662C31.9205 43.5662 31.4602 43.1059 31.4602 42.5403C31.4602 41.8932 30.9355 41.3684 30.2883 41.3684C29.6411 41.3684 29.1164 41.8932 29.1164 42.5403V42.5831C29.1164 43.1487 28.6562 43.609 28.0906 43.609C27.4433 43.609 26.9187 44.1338 26.9187 44.7809C26.9187 45.428 27.4433 45.9528 28.0906 45.9528C28.9413 45.9528 29.7192 45.6356 30.3129 45.1135C30.9199 45.6284 31.6902 45.9107 32.4862 45.9099C33.1333 45.9099 33.658 45.3851 33.658 44.738C33.658 44.0908 33.1333 43.5662 32.4862 43.5662Z"/>
<path d="M26.1919 38.1664L24.4512 37.3688C24.2981 37.2985 24.1316 37.2621 23.9631 37.2621C23.7947 37.2621 23.6282 37.2985 23.475 37.3688L21.7342 38.1664C21.1458 38.4359 20.8873 39.1314 21.157 39.7198C21.221 39.8597 21.3121 39.9856 21.4248 40.0904C21.5376 40.1951 21.6698 40.2766 21.8141 40.3302C21.9584 40.3838 22.1118 40.4085 22.2655 40.4028C22.4193 40.3971 22.5705 40.3612 22.7104 40.2971L23.963 39.7232L25.2156 40.2971C25.8037 40.5669 26.4995 40.3082 26.7691 39.7198C27.0388 39.1314 26.7802 38.4358 26.1919 38.1664Z"/>
<path d="M38.8423 38.1662L37.1016 37.3686C36.9485 37.2983 36.782 37.262 36.6135 37.262C36.4451 37.262 36.2786 37.2983 36.1255 37.3686L34.3847 38.1662C33.7963 38.4357 33.5378 39.1312 33.8075 39.7196C34.0771 40.3083 34.7726 40.5669 35.3609 40.2969L36.6135 39.723L37.8662 40.2969C38.019 40.3672 38.1853 40.4036 38.3535 40.4036C38.7977 40.4036 39.2225 40.1498 39.4196 39.7196C39.6892 39.1312 39.4308 38.4357 38.8423 38.1662Z"/>
</symbol>
<symbol id="toys" viewBox="0 0 60 60">
<title>Toys</title>
<path d="M51.2132 8.78672C45.5469 3.1207 38.0133 0 30 0C21.9867 0 14.4531 3.1207 8.78684 8.78672C3.12047 14.4531 0 21.9866 0 30C0 38.0134 3.12047 45.5469 8.78684 51.2133C14.4531 56.8793 21.9867 60 30 60C38.0133 60 45.5469 56.8793 51.2132 51.2133C56.8795 45.5469 60 38.0134 60 30C60 21.9866 56.8795 14.4531 51.2132 8.78672ZM10.6314 49.3685C5.90438 44.6415 3.11918 38.4906 2.67352 31.8832C3.39 31.9077 4.1223 31.9755 4.86223 32.0856C10.1654 32.8733 15.5023 35.7234 19.8894 40.1106C24.2766 44.4979 27.1266 49.8346 27.9144 55.1379C28.0223 55.8586 28.0894 56.5849 28.1154 57.3132C21.7419 56.8775 15.4928 54.2298 10.6314 49.3685ZM30.7262 57.3682C30.7013 56.4931 30.6239 55.6203 30.4946 54.7545C29.6251 48.9019 26.5139 43.046 21.7338 38.2659C16.9538 33.4859 11.098 30.3746 5.2452 29.5051C4.37502 29.3751 3.49781 29.2977 2.61832 29.2732C2.64105 28.3972 2.7048 27.5283 2.8084 26.6682C3.73793 26.6987 4.68246 26.7843 5.62863 26.9248C12.0308 27.8757 18.4055 31.2484 23.5785 36.4213C28.7512 41.5939 32.1239 47.9687 33.075 54.3709C33.2133 55.3004 33.2987 56.237 33.3307 57.1763C32.4661 57.2814 31.5969 57.3455 30.7262 57.3682ZM49.3685 49.3685C45.5416 53.1952 40.8551 55.6504 35.9248 56.7348C35.881 55.8152 35.7912 54.8983 35.6557 53.9877C34.6229 47.0358 30.9889 40.1423 25.4234 34.5766C19.8575 29.0109 12.964 25.3772 6.0123 24.3444C5.0982 24.2082 4.17782 24.1182 3.25465 24.0746L3.2475 24.0805C4.35598 19.0238 6.88301 14.3798 10.6315 10.6314C14.2923 6.97055 18.7399 4.56516 23.4349 3.41402C23.4672 4.49215 23.5632 5.56742 23.7224 6.63422C24.755 13.5859 28.3889 20.4795 33.9546 26.0453C39.5203 31.611 46.4139 35.2447 53.3659 36.2775C54.4358 36.4373 55.5143 36.5334 56.5956 36.5653L56.6073 36.5459C55.4323 41.3595 52.9617 45.7754 49.3685 49.3685ZM57.1071 33.966C56.0064 33.955 54.8814 33.8653 53.7492 33.6972C47.3468 32.7461 40.972 29.3735 35.7993 24.2006C30.6265 19.0277 27.2538 12.6531 26.3029 6.25102C26.1354 5.12379 26.0455 4.00371 26.034 2.90824C26.8999 2.78261 27.7712 2.69826 28.6451 2.65547C28.6431 3.70254 28.7214 4.7775 28.8832 5.8677C29.7527 11.7204 32.8641 17.5763 37.6441 22.3562C38.1534 22.8654 38.9794 22.8654 39.4888 22.3562C39.9981 21.8469 39.9981 21.021 39.4888 20.5114C35.1016 16.1243 32.2516 10.7876 31.4638 5.48426C31.3205 4.51898 31.2499 3.57035 31.2521 2.65055C37.8434 2.94937 44.3467 5.60918 49.3688 10.6315C54.2461 15.5088 57.0565 21.902 57.3623 28.7483C56.4367 28.7503 55.4855 28.6804 54.5159 28.5363C53.8035 28.4305 53.1397 28.9225 53.034 29.635C52.9281 30.3476 53.42 31.0109 54.1325 31.1167C55.21 31.2768 56.2729 31.3569 57.3083 31.3569C57.3252 31.3569 57.3417 31.356 57.3586 31.356C57.316 32.2295 57.2321 33.1004 57.1071 33.966Z" />
<path d="M46.1517 25.775C45.8059 25.7756 45.4744 25.9131 45.2296 26.1573C44.9854 26.4021 44.848 26.7336 44.8474 27.0793C44.8474 27.4224 44.9857 27.7589 45.2296 28.0015C45.4721 28.2442 45.8087 28.3836 46.1517 28.3836C46.4947 28.3836 46.8313 28.2442 47.0739 28.0015C47.3176 27.7563 47.4549 27.425 47.456 27.0793C47.456 26.7363 47.3164 26.3998 47.0739 26.1573C46.829 25.9131 46.4975 25.7756 46.1517 25.775Z" />
</symbol>
<symbol id="transportation" viewBox="0 0 60 60">
<title>Transportation</title>
<path d="M55.0279 12.7115H48.0049V12.5095C48.0049 8.87665 45.0495 5.92118 41.4167 5.92118C37.7838 5.92118 34.8284 8.87665 34.8284 12.5095V12.7115H26.5806C23.8649 12.7115 21.6556 14.9209 21.6556 17.6365V23.2009H14.2693C12.5073 23.2009 10.9411 24.2562 10.2793 25.8893C10.2697 25.9133 10.2608 25.9375 10.2526 25.962L5.99157 38.8689C5.9529 38.8919 5.90357 38.9191 5.84216 38.9498C5.59853 39.0714 5.14279 39.2568 4.35857 39.4484C3.11412 39.7499 2.0074 40.4616 1.21672 41.4688C0.426051 42.4759 -0.00253772 43.72 1.13048e-05 45.0004V51.0987C1.13048e-05 53.1406 1.66114 54.8018 3.70302 54.8018L8.92724 54.802C9.47884 57.7562 12.0749 59.9999 15.1867 59.9999C18.2984 59.9999 20.8944 57.7561 21.4461 54.8021L39.8707 54.8024C40.4224 57.7564 43.0184 59.9999 46.1301 59.9999C49.2416 59.9999 51.8376 57.7565 52.3894 54.8026L55.7071 54.8027C58.2467 54.8027 59.9529 53.0963 59.9529 50.5568V20.08C59.9529 13.4295 56.5086 12.7115 55.0279 12.7115ZM37.1721 12.5095C37.1721 10.169 39.0762 8.26493 41.4167 8.26493C43.7571 8.26493 45.6612 10.169 45.6612 12.5095V12.7115H37.1721V12.5095ZM12.4648 26.7379C12.6145 26.3833 12.8657 26.0809 13.1867 25.8686C13.5077 25.6563 13.8843 25.5436 14.2692 25.5447H21.6554V38.8266H8.47372L12.4648 26.7379ZM15.1867 57.6562C12.967 57.6562 11.1612 55.8504 11.1612 53.6307C11.1612 53.6033 11.1627 53.5762 11.1633 53.5488C11.1641 53.5069 11.1643 53.465 11.1665 53.4234C11.1668 53.4168 11.1676 53.4104 11.168 53.4038C11.2861 51.2894 13.0435 49.6052 15.1867 49.6052C17.1261 49.6052 18.7497 50.9841 19.1285 52.8129L19.1302 52.82C19.1429 52.882 19.154 52.9445 19.1638 53.0076L19.1657 53.018C19.1727 53.0638 19.1779 53.1101 19.1833 53.1564C19.1857 53.1775 19.1891 53.1983 19.1912 53.2194C19.1949 53.2554 19.1968 53.2921 19.1995 53.3285C19.2019 53.3602 19.2052 53.3916 19.2068 53.4235C19.2085 53.4563 19.2085 53.4896 19.2093 53.5226C19.2102 53.5586 19.212 53.5944 19.212 53.6306C19.2122 55.8504 17.4063 57.6562 15.1867 57.6562ZM46.1301 57.6562C43.9104 57.6562 42.1045 55.8504 42.1045 53.6307C42.1045 53.5783 42.1065 53.5263 42.1085 53.4743C42.1091 53.4576 42.109 53.4405 42.1098 53.4238C42.1118 53.3852 42.1156 53.3471 42.1186 53.3088C42.121 53.2791 42.1224 53.2491 42.1254 53.2196C42.1267 53.207 42.1288 53.1947 42.1301 53.1823C42.1437 53.06 42.1621 52.939 42.1865 52.8203C42.1872 52.8168 42.1881 52.8134 42.1889 52.8099C42.569 50.9826 44.1915 49.6053 46.1301 49.6053C46.6849 49.6053 47.214 49.7181 47.6954 49.9222C49.1398 50.5341 50.1554 51.966 50.1554 53.6308C50.1554 55.8504 48.3497 57.6562 46.1301 57.6562ZM55.7071 52.4588L52.3913 52.4587C52.3874 52.4379 52.3824 52.4175 52.3783 52.3968C52.3507 52.2591 52.3189 52.1222 52.283 51.9864C52.267 51.927 52.2502 51.8679 52.2325 51.809C52.2215 51.7724 52.2107 51.7358 52.1992 51.6994C52.1795 51.6382 52.1588 51.5772 52.1372 51.5166C52.1257 51.4842 52.1148 51.4513 52.1027 51.4191C52.0766 51.3492 52.0492 51.2799 52.0205 51.211C52.0115 51.1892 52.0033 51.1669 51.994 51.1452C51.9553 51.0542 51.9145 50.9641 51.8717 50.875C51.8663 50.8639 51.8604 50.8532 51.855 50.8422C51.8176 50.7656 51.7787 50.6897 51.7383 50.6146C51.7234 50.5871 51.7076 50.5602 51.6924 50.5329C51.6602 50.4749 51.6271 50.4175 51.5931 50.3606C51.5746 50.3297 51.5554 50.2995 51.5363 50.2689C51.484 50.1846 51.4296 50.1016 51.373 50.0201C51.3174 49.9395 51.26 49.8602 51.2008 49.7821C51.1638 49.7337 51.1261 49.6858 51.0878 49.6385C51.0649 49.6102 51.0424 49.5819 51.0191 49.554C50.9774 49.5043 50.9349 49.4553 50.8917 49.4069C50.8704 49.383 50.8497 49.3585 50.828 49.3349C50.7742 49.2763 50.7193 49.2188 50.6633 49.1623C50.6513 49.1501 50.6398 49.1374 50.6276 49.1253C50.5585 49.0563 50.4879 48.989 50.4157 48.9233C50.4004 48.9092 50.3843 48.896 50.3687 48.882C50.3122 48.8315 50.2551 48.7815 50.1967 48.7329C50.1711 48.7116 50.1448 48.6912 50.1189 48.6704C50.0695 48.6304 50.0195 48.5911 49.969 48.5525C49.9392 48.53 49.9091 48.5081 49.879 48.4861C49.7516 48.3927 49.6207 48.3043 49.4865 48.221C49.4537 48.2004 49.4208 48.1802 49.3875 48.1602C49.3356 48.1292 49.2831 48.0993 49.2303 48.0698C49.1978 48.0516 49.1654 48.0331 49.1326 48.0155C49.0752 47.9847 49.017 47.9553 48.9585 47.9262C48.9294 47.9117 48.9007 47.8966 48.8714 47.8826C48.7948 47.8461 48.7175 47.8111 48.6395 47.7776C48.6276 47.7725 48.6158 47.7667 48.6038 47.7616C48.5131 47.7233 48.4215 47.6871 48.3291 47.6531C48.3027 47.6433 48.2759 47.6348 48.2493 47.6254C48.1829 47.602 48.1165 47.5789 48.0492 47.5575C48.014 47.5464 47.9783 47.5363 47.9428 47.5258C47.8832 47.5081 47.8234 47.4906 47.7631 47.4746C47.7244 47.4643 47.6855 47.4549 47.6465 47.4453C47.548 47.421 47.4489 47.3992 47.3494 47.3798C47.2904 47.3684 47.2313 47.3578 47.172 47.348C47.1313 47.3413 47.0906 47.3345 47.0497 47.3287C46.9881 47.3199 46.9263 47.3121 46.8645 47.3051C46.8252 47.3006 46.7861 47.2956 46.7466 47.2919C46.678 47.2856 46.6094 47.2803 46.5407 47.2762C46.507 47.2741 46.4738 47.271 46.44 47.2694C46.3367 47.2643 46.2333 47.2617 46.1299 47.2615C46.026 47.2615 45.9226 47.2645 45.8199 47.2694C45.7861 47.271 45.7527 47.2741 45.7191 47.2762C45.6503 47.2806 45.5816 47.2853 45.5134 47.2919C45.4738 47.2958 45.4347 47.3007 45.3953 47.3052C45.3334 47.3124 45.2717 47.3199 45.2104 47.3288C45.1693 47.3348 45.1285 47.3415 45.0877 47.3483C44.9876 47.3649 44.8879 47.3838 44.7886 47.4049C44.7303 47.4175 44.6721 47.431 44.6141 47.4453C44.5747 47.4549 44.5355 47.4645 44.4965 47.4748C44.4367 47.4906 44.3775 47.5079 44.3185 47.5254C44.2824 47.5362 44.246 47.5464 44.2102 47.5578C44.1445 47.5788 44.0791 47.601 44.0141 47.6242C43.9862 47.6341 43.958 47.6431 43.9302 47.6534C43.8381 47.6874 43.7469 47.7233 43.6569 47.7613C43.642 47.7677 43.6275 47.7747 43.6126 47.7812C43.5375 47.8136 43.463 47.847 43.3894 47.8822C43.3583 47.897 43.328 47.913 43.2972 47.9283C43.2407 47.9566 43.1842 47.9849 43.1286 48.0147C43.0943 48.0331 43.0604 48.0524 43.0265 48.0715C42.9753 48.1001 42.9245 48.1293 42.8741 48.1592C42.7556 48.2304 42.6393 48.3051 42.5254 48.3833C42.478 48.416 42.4311 48.4494 42.3846 48.4835C42.3526 48.5068 42.3205 48.53 42.289 48.5539C42.2408 48.5904 42.1936 48.6281 42.1465 48.6659C42.1181 48.6888 42.0894 48.711 42.0614 48.7343C42.0073 48.7795 41.9543 48.826 41.9017 48.8727C41.8821 48.8901 41.8621 48.9069 41.8428 48.9244C41.7716 48.9892 41.702 49.0556 41.6339 49.1235C41.6167 49.1406 41.6004 49.1587 41.5833 49.176C41.5328 49.2276 41.4826 49.2795 41.4338 49.3328C41.4094 49.3595 41.3858 49.387 41.3619 49.414C41.3217 49.4594 41.2818 49.5049 41.2429 49.5514C41.2176 49.5817 41.1929 49.6126 41.1682 49.6434C41.1321 49.6881 41.0965 49.7331 41.0616 49.7788C40.9779 49.889 40.8977 50.0018 40.821 50.1169C40.789 50.165 40.7581 50.2137 40.7275 50.2627C40.7065 50.2962 40.6853 50.3296 40.665 50.3635C40.6334 50.4161 40.6031 50.4695 40.5731 50.5232C40.5556 50.5545 40.5374 50.5854 40.5203 50.6172C40.4842 50.684 40.4499 50.752 40.4162 50.8202C40.4067 50.8394 40.3965 50.858 40.3873 50.8774C40.3451 50.965 40.305 51.0536 40.2669 51.143C40.2553 51.1703 40.2449 51.1982 40.2337 51.2258C40.2078 51.2889 40.1822 51.3523 40.1583 51.4165C40.1449 51.4524 40.1329 51.4887 40.1201 51.5247C40.0999 51.5817 40.0805 51.6389 40.0619 51.6964C40.0493 51.7355 40.0377 51.7751 40.0259 51.8146C39.9971 51.911 39.9706 52.008 39.9465 52.1056C39.9326 52.162 39.9196 52.2187 39.9072 52.2758C39.8981 52.3171 39.8892 52.3585 39.881 52.4001C39.8772 52.4198 39.8724 52.4391 39.8687 52.4588L21.4476 52.4585C21.4437 52.4382 21.4389 52.4181 21.4349 52.3979C21.427 52.3578 21.4184 52.3181 21.4098 52.2783C21.3758 52.1215 21.3357 51.9659 21.2897 51.8122C21.2783 51.774 21.267 51.7358 21.2549 51.6978C21.2359 51.6389 21.2161 51.5804 21.1954 51.5221C21.1831 51.4872 21.1712 51.452 21.1583 51.4174C21.1339 51.3522 21.1083 51.2875 21.0816 51.2232C21.0708 51.1967 21.0607 51.1697 21.0495 51.1435C21.0113 51.0538 20.9711 50.965 20.9288 50.8771C20.9202 50.8594 20.9108 50.8423 20.9022 50.8247C20.8679 50.7548 20.8324 50.6855 20.7955 50.6169C20.7789 50.5859 20.7611 50.5556 20.7438 50.525C20.7134 50.4707 20.6828 50.4166 20.6508 50.3634C20.6306 50.3297 20.6097 50.2968 20.5889 50.2636C20.5582 50.2143 20.5269 50.1654 20.4948 50.1169C20.4181 50.0019 20.3379 49.8893 20.2543 49.7792C20.2195 49.7335 20.1839 49.6885 20.1478 49.6438C20.123 49.613 20.0983 49.582 20.0729 49.5516C20.034 49.5055 19.9945 49.4598 19.9543 49.4147C19.9302 49.3876 19.9065 49.3599 19.882 49.3331C19.8338 49.2803 19.7841 49.2289 19.734 49.1778C19.7165 49.1599 19.6997 49.1413 19.6819 49.1238C19.6139 49.0559 19.5444 48.9897 19.4734 48.925C19.4537 48.907 19.4331 48.89 19.4132 48.8722C19.3611 48.8255 19.3083 48.7798 19.2547 48.7349C19.2264 48.7114 19.1973 48.6888 19.1686 48.6657C19.122 48.6282 19.0751 48.5908 19.0273 48.5546C18.9955 48.5304 18.9632 48.5071 18.931 48.4836C18.8847 48.4497 18.838 48.4165 18.7909 48.3838C18.7103 48.3285 18.6284 48.2749 18.5454 48.2232C18.511 48.2016 18.4763 48.1803 18.4415 48.1594C18.3914 48.1296 18.3409 48.1006 18.2901 48.0722C18.2558 48.053 18.2217 48.0336 18.187 48.0151C18.1317 47.9856 18.076 47.957 18.0198 47.9293C17.9886 47.9137 17.9578 47.8975 17.9263 47.8824C17.8536 47.8478 17.7802 47.8146 17.7062 47.7827C17.6904 47.7758 17.6749 47.7683 17.659 47.7615C17.5689 47.7234 17.4779 47.6875 17.3861 47.6536C17.3578 47.6432 17.3291 47.6341 17.3006 47.624C17.2361 47.601 17.1713 47.579 17.1061 47.558C17.07 47.5465 17.0333 47.5362 16.9969 47.5254C16.9381 47.5078 16.8791 47.491 16.8198 47.4751C16.7806 47.4646 16.7411 47.455 16.7016 47.4454C16.5452 47.4067 16.3874 47.3743 16.2284 47.3484C16.1876 47.3417 16.1468 47.3349 16.1057 47.3289C16.0441 47.3202 15.9824 47.3123 15.9206 47.3054C15.8814 47.3008 15.8422 47.2959 15.8027 47.292C15.7342 47.2857 15.6656 47.2805 15.5968 47.2763C15.5632 47.2742 15.5299 47.2711 15.4962 47.2695C15.3929 47.2644 15.2895 47.2618 15.1861 47.2617C15.0822 47.2617 14.9789 47.2646 14.876 47.2695C14.8423 47.2711 14.8089 47.2742 14.7752 47.2763C14.7065 47.2808 14.6378 47.2854 14.5696 47.292C14.53 47.2959 14.4907 47.3008 14.4513 47.3054C14.3897 47.3123 14.3281 47.3202 14.2667 47.3289C14.2254 47.3349 14.1845 47.3417 14.1436 47.3484C14.0435 47.3648 13.9438 47.3837 13.8447 47.405C13.7865 47.4175 13.7288 47.431 13.6711 47.4452C13.6314 47.4549 13.5915 47.4646 13.5522 47.4751C13.4933 47.4909 13.4347 47.5076 13.3764 47.5251C13.3396 47.536 13.3026 47.5465 13.266 47.558C13.2015 47.5784 13.1378 47.6007 13.0742 47.6231C13.0447 47.6334 13.0151 47.6429 12.9859 47.6536C12.8943 47.6875 12.8036 47.7231 12.714 47.761C12.6959 47.7687 12.6782 47.7773 12.6601 47.7851C12.5885 47.8162 12.5173 47.8481 12.447 47.8817C12.4142 47.8974 12.382 47.9143 12.3495 47.9306C12.2947 47.9577 12.2403 47.9855 12.1863 48.0142C12.1507 48.0333 12.1157 48.0534 12.0804 48.0732C12.0307 48.1011 11.9811 48.1292 11.9323 48.1585C11.8487 48.2086 11.7662 48.2604 11.6849 48.3141C11.6497 48.3373 11.6148 48.3608 11.5801 48.3847C11.5342 48.4163 11.489 48.4488 11.4438 48.4816C11.4104 48.506 11.3768 48.5302 11.3439 48.5553C11.2978 48.5903 11.2526 48.6263 11.2075 48.6625C11.1771 48.6869 11.1464 48.7107 11.1167 48.7356C11.0659 48.7778 11.0165 48.8214 10.9671 48.8651C10.9442 48.8854 10.9207 48.9051 10.898 48.9257C10.8278 48.9898 10.759 49.0554 10.6916 49.1225C10.6708 49.1433 10.6508 49.1651 10.6302 49.1862C10.5834 49.2342 10.5369 49.2822 10.4917 49.3315C10.4653 49.3602 10.44 49.3899 10.4142 49.4191C10.376 49.4623 10.3379 49.5056 10.301 49.5499C10.2743 49.5817 10.2483 49.6143 10.2223 49.6468C10.1876 49.6897 10.1535 49.7331 10.12 49.777C10.0611 49.8544 10.0039 49.9332 9.94853 50.0132C9.92419 50.0482 9.90021 50.0835 9.87657 50.1189C9.84575 50.1653 9.81599 50.2123 9.78634 50.2594C9.76431 50.2946 9.74216 50.3295 9.72083 50.3651C9.69048 50.4156 9.66154 50.467 9.63259 50.5183C9.61384 50.5517 9.5945 50.5847 9.57622 50.6185C9.54246 50.6817 9.50976 50.7454 9.47814 50.8097C9.46665 50.8327 9.45446 50.8552 9.44333 50.8784C9.40161 50.9651 9.36189 51.0529 9.32403 51.1417C9.31114 51.172 9.29966 51.2028 9.28724 51.2333C9.26263 51.2936 9.23814 51.354 9.2154 51.4151C9.20146 51.4525 9.1888 51.4904 9.17556 51.5281C9.15611 51.5835 9.13689 51.639 9.11896 51.695C9.10607 51.7352 9.09411 51.7757 9.08204 51.8163C9.06575 51.871 9.04993 51.9258 9.03505 51.9811C9.00897 52.0781 8.98533 52.1757 8.96415 52.2739C8.95501 52.3161 8.94587 52.3581 8.93755 52.4007C8.9338 52.4199 8.92911 52.4389 8.92548 52.4581H3.70302C2.95349 52.4581 2.34376 51.8484 2.34376 51.0987V45.0004C2.34219 44.2451 2.59496 43.5113 3.06134 42.9171C3.52772 42.323 4.18054 41.9032 4.91462 41.7254C5.58247 41.5621 6.15611 41.376 6.6245 41.1705H49.1861C49.8332 41.1705 50.3579 40.6458 50.3579 39.9986C50.3579 39.3515 49.8332 38.8267 49.1861 38.8267H23.9993V17.6365C23.9993 16.2133 25.1574 15.0552 26.5806 15.0552H55.0277C57.2738 15.0552 57.609 18.2034 57.609 20.08V50.5567C57.609 52.2118 56.4174 52.4588 55.7071 52.4588Z" />
<path d="M50.4606 24.8147C50.4607 23.2763 49.3801 21.9863 47.9384 21.6615C47.9461 21.5806 47.9522 21.4992 47.9546 21.4169C47.9814 20.4633 47.6252 19.5567 46.9517 18.864C46.2667 18.1596 45.3101 17.7557 44.3269 17.7557C43.1389 17.7557 42.0808 18.3338 41.4183 19.2239C40.7563 18.3338 39.6973 17.7557 38.5066 17.7557C37.5321 17.7557 36.5821 18.1544 35.9002 18.8498C35.223 19.5402 34.8601 20.4483 34.8787 21.4064C34.8803 21.4923 34.8862 21.5773 34.8938 21.6618C33.4526 21.987 32.3727 23.2766 32.3727 24.8147C32.3727 26.1163 33.1464 27.2399 34.2576 27.7519C33.4748 28.7206 33.018 29.9464 33.018 31.2423C33.018 34.3028 35.5078 36.7927 38.5683 36.7927C39.5764 36.7927 40.5605 36.5172 41.4167 36.0051C42.2775 36.5202 43.2619 36.7924 44.265 36.7927C47.3255 36.7927 49.8154 34.3028 49.8154 31.2423C49.8154 29.9462 49.3586 28.7206 48.5758 27.7519C49.6871 27.2399 50.4606 26.1163 50.4606 24.8147ZM44.3269 20.0996C44.6809 20.0996 45.0251 20.2448 45.2713 20.4979C45.4997 20.7328 45.6205 21.0357 45.6118 21.3508C45.5915 22.0692 45.0091 22.6602 44.3133 22.6682C44.1269 22.668 43.9426 22.6279 43.773 22.5505C43.752 22.5408 43.7314 22.5304 43.7103 22.5209C43.6035 22.4646 43.5058 22.3927 43.4201 22.3077C43.1753 22.0648 43.0412 21.7384 43.0426 21.3885C43.0455 20.6778 43.6217 20.0996 44.3269 20.0996ZM37.5733 20.491C37.6946 20.3665 37.8398 20.2677 38.0001 20.2005C38.1604 20.1332 38.3326 20.0988 38.5064 20.0994C39.2138 20.0994 39.7899 20.6762 39.7907 21.3851C39.7916 21.5579 39.7578 21.7291 39.6913 21.8885C39.6248 22.048 39.527 22.1925 39.4036 22.3135C39.3199 22.3959 39.2248 22.466 39.1213 22.5217C39.083 22.5391 39.0456 22.5577 39.0078 22.5758C38.855 22.6389 38.691 22.6704 38.5258 22.6683C37.8204 22.6567 37.2355 22.0704 37.2218 21.3613C37.2155 21.0374 37.3404 20.7285 37.5733 20.491ZM34.7165 24.8148C34.7164 24.3245 35.1153 23.9257 35.6053 23.9257C36.0957 23.9257 36.4944 24.3245 36.4944 24.8148C36.4944 24.9155 36.4769 25.0118 36.4459 25.1022C36.4166 25.1611 36.3884 25.2207 36.3612 25.2808C36.2044 25.5341 35.9247 25.7038 35.6055 25.7038C35.1153 25.7038 34.7165 25.305 34.7165 24.8148ZM44.265 34.4492C43.5 34.4489 42.7603 34.175 42.1796 33.6769C41.9673 33.4945 41.6966 33.3943 41.4167 33.3946C41.1368 33.3944 40.8661 33.4946 40.6538 33.6769C40.0731 34.175 39.3334 34.4489 38.5683 34.4492C36.8002 34.4492 35.3617 33.0107 35.3617 31.2426C35.3617 29.9023 36.2068 28.6919 37.4644 28.2307C37.6707 28.1551 37.8516 28.023 37.9864 27.8495C38.1212 27.676 38.2045 27.4681 38.2268 27.2495C38.2597 26.9273 38.3411 26.6118 38.4682 26.3139C38.51 26.2346 38.5491 26.1537 38.5843 26.0707C38.8951 25.4851 39.3806 25.0108 39.9733 24.7136C40.0243 24.6912 40.0746 24.6676 40.1246 24.6428C40.532 24.4648 40.972 24.3731 41.4167 24.3737C41.8748 24.3737 42.311 24.4692 42.7063 24.6417C42.7562 24.6665 42.8066 24.6899 42.8576 24.7123C43.4514 25.0094 43.9378 25.4843 44.2491 26.0707C44.2843 26.1537 44.3234 26.2346 44.3651 26.3139C44.4923 26.6118 44.5737 26.9273 44.6065 27.2495C44.6288 27.4681 44.7121 27.676 44.847 27.8495C44.9818 28.023 45.1626 28.1551 45.3689 28.2307C46.6266 28.692 47.4716 29.9023 47.4716 31.2426C47.4716 33.0106 46.0332 34.4492 44.265 34.4492ZM47.228 25.7038C46.9088 25.7038 46.6291 25.5341 46.4723 25.2808C46.4451 25.2208 46.4168 25.1612 46.3875 25.1022C46.3556 25.0097 46.3392 24.9126 46.339 24.8148C46.339 24.3245 46.7378 23.9257 47.2281 23.9257C47.7183 23.9257 48.1171 24.3245 48.1171 24.8148C48.117 25.3049 47.7182 25.7038 47.228 25.7038Z" />
<path d="M55.0428 39.7758C55.0278 39.7007 55.0054 39.6273 54.9761 39.5566C54.9469 39.4857 54.9108 39.4178 54.8683 39.3539C54.8261 39.2897 54.7774 39.23 54.723 39.1758C54.6687 39.1214 54.6091 39.0727 54.5449 39.0305C54.4168 38.9457 54.2735 38.8864 54.123 38.8559C53.9722 38.8254 53.8168 38.8254 53.666 38.8559C53.591 38.8712 53.5171 38.8934 53.4456 38.9227C53.3753 38.952 53.3074 38.9884 53.2441 39.0305C53.1796 39.0727 53.1199 39.1219 53.066 39.1758C53.0119 39.2297 52.9627 39.2895 52.9195 39.3539C52.8773 39.4172 52.8408 39.4852 52.8128 39.5566C52.7835 39.627 52.7601 39.7008 52.746 39.7758C52.7308 39.8508 52.7226 39.9281 52.7226 40.0043C52.7226 40.0803 52.7308 40.1578 52.746 40.234C52.7601 40.3078 52.7835 40.3816 52.8128 40.4531C52.8421 40.5234 52.8785 40.5914 52.9206 40.6547C52.9627 40.7191 53.0119 40.7789 53.066 40.8328C53.1199 40.8867 53.1796 40.9359 53.2441 40.9793C53.3074 41.0215 53.3753 41.0566 53.4456 41.0859C53.5171 41.1152 53.591 41.1387 53.666 41.1527C53.7411 41.168 53.8184 41.1762 53.8945 41.1762C53.9706 41.1762 54.0481 41.168 54.123 41.1527C54.198 41.1387 54.2718 41.1152 54.3421 41.0859C54.4136 41.0566 54.4816 41.0215 54.5449 40.9793C54.6094 40.9359 54.6692 40.8867 54.723 40.8328C54.7769 40.7789 54.8261 40.7191 54.8683 40.6547C54.9104 40.5914 54.9468 40.5234 54.9761 40.4531C55.0054 40.3816 55.0276 40.3078 55.0428 40.234C55.0581 40.1578 55.0662 40.0803 55.0662 40.0043C55.0662 39.9281 55.0581 39.8508 55.0428 39.7758Z" />
<path d="M41.4167 0C40.7696 0 40.2448 0.524648 40.2448 1.17188V3.13359C40.2448 3.78082 40.7696 4.30547 41.4167 4.30547C42.0639 4.30547 42.5885 3.7807 42.5885 3.13359V1.17188C42.5885 0.524648 42.0639 0 41.4167 0Z" />
<path d="M36.4797 4.55659L34.844 3.27234C34.723 3.1773 34.5844 3.10703 34.4362 3.06555C34.288 3.02407 34.1331 3.01218 33.9803 3.03057C33.8275 3.04896 33.6798 3.09727 33.5457 3.17273C33.4116 3.24819 33.2936 3.34934 33.1986 3.47038C32.799 3.97944 32.8877 4.71608 33.3966 5.11569L35.0323 6.39995C35.2384 6.56221 35.493 6.65035 35.7553 6.65015C35.933 6.65039 36.1084 6.61017 36.2682 6.53253C36.4281 6.45488 36.5681 6.34186 36.6778 6.20202C37.0775 5.69284 36.9888 4.9562 36.4797 4.55659Z" />
<path d="M49.6348 3.47021C49.2352 2.96115 48.4987 2.87244 47.9894 3.27216L46.3537 4.55642C45.8446 4.95603 45.7559 5.69267 46.1556 6.20185C46.2652 6.34177 46.4053 6.45487 46.5651 6.53254C46.725 6.61021 46.9004 6.65042 47.0781 6.6501C47.3404 6.65028 47.5951 6.56214 47.8011 6.3999L49.4368 5.11564C49.9459 4.71603 50.0346 3.97939 49.6348 3.47021Z" />
</symbol>
<symbol id="vitamins" viewBox="0 0 60 60">
<title>Vitamins</title>
<path d="M54.3108 35.3986C51.0359 34.284 46.7048 33.6702 42.1158 33.6702C41.8289 33.6702 41.5431 33.6725 41.2586 33.6773C36.9894 33.7488 32.991 34.3536 29.9207 35.3986C29.428 35.5653 28.9424 35.7523 28.4651 35.9589V17.2325C28.4651 9.38472 22.0805 3 14.2325 3C6.38461 3 0 9.38472 0 17.2325V42.9261C0 50.7739 6.38461 57.1587 14.2325 57.1587C16.722 57.1587 19.1722 56.5062 21.3188 55.2717C22.6721 54.4934 23.8881 53.4936 24.9168 52.3257C25.6645 53.3761 27.1451 54.4856 29.9208 55.4303C33.1957 56.5448 37.5266 57.1587 42.1157 57.1587C46.7047 57.1587 51.0357 56.5448 54.3107 55.4303C59.0129 53.83 60 51.7566 60 50.299V40.5299C60 39.0723 59.0129 36.9989 54.3108 35.3986ZM26.5754 40.5299C26.5759 40.4863 26.5798 40.4428 26.5871 40.3998L26.5891 40.3882C26.6289 40.1764 26.7563 39.9305 26.9907 39.6639L26.9952 39.6589C27.0307 39.6187 27.0695 39.578 27.1099 39.5368C27.137 39.5096 27.1641 39.4823 27.193 39.4552L27.2271 39.4233C27.4235 39.2422 27.6601 39.0603 27.9332 38.8825C27.9379 38.8794 27.9418 38.8757 27.9464 38.8726C28.5871 38.4565 29.478 38.025 30.6759 37.6173C33.7141 36.5834 37.7769 36.0138 42.1158 36.0138C46.0691 36.0139 49.7904 36.488 52.719 37.3541L27.6397 41.9756C26.8868 41.4213 26.5767 40.9077 26.5754 40.5323V40.5299ZM26.1213 37.2903C25.2179 37.9825 24.7144 38.6857 24.4591 39.3382C24.3731 39.5576 24.3108 39.7855 24.2733 40.0181C24.2561 40.1239 24.2443 40.2305 24.2379 40.3375L24.2359 40.3677C24.2331 40.4224 24.2313 40.4766 24.2313 40.5298V49.3609C22.0289 52.7824 18.315 54.8149 14.2325 54.8149C7.67707 54.8149 2.34375 49.4816 2.34375 42.9261V31.2512H4.6875V37.5793C4.6875 38.2266 5.21227 38.7512 5.85938 38.7512C6.50648 38.7512 7.03125 38.2266 7.03125 37.5793V31.2512H26.1213V37.2903ZM26.1213 28.9075H7.03125V17.2325C7.03125 13.2618 10.2616 10.0312 14.2325 10.0312C18.2034 10.0312 21.4338 13.2618 21.4338 17.2325C21.4338 17.8798 21.9586 18.4044 22.6057 18.4044C23.2529 18.4044 23.7776 17.8798 23.7776 17.2325C23.7776 11.9694 19.4957 7.6875 14.2325 7.6875C8.96941 7.6875 4.6875 11.9694 4.6875 17.2325V28.9075H2.34375V17.2325C2.34375 10.6771 7.67707 5.34375 14.2325 5.34375C20.788 5.34375 26.1213 10.6771 26.1213 17.2325V28.9075ZM57.6562 50.299C57.6562 50.9987 56.5823 52.1814 53.5556 53.2116C50.5174 54.2455 46.4546 54.815 42.1158 54.815C37.7769 54.815 33.7141 54.2456 30.6759 53.2116C27.6492 52.1815 26.5753 50.9988 26.5753 50.299V49.6986L26.5754 49.697V44.0932C27.3962 44.6393 28.4844 45.1724 29.9208 45.6612C33.1957 46.7757 37.5267 47.3896 42.1158 47.3896C46.7048 47.3896 51.0359 46.7757 54.3108 45.6612C55.7471 45.1723 56.8355 44.6393 57.6562 44.0931V50.299ZM53.5556 43.4423C50.5174 44.4763 46.4548 45.0458 42.1158 45.0458C38.1056 45.0458 34.3334 44.5584 31.386 43.6685L56.525 39.036C57.3278 39.6098 57.6562 40.1435 57.6562 40.5299C57.6562 41.2296 56.5823 42.4123 53.5556 43.4423Z" />
<path d="M6.68777 41.402C6.63386 41.3481 6.57421 41.2989 6.50976 41.2567C6.44592 41.2141 6.37801 41.178 6.30702 41.1489C6.23671 41.1196 6.163 41.0973 6.088 41.0821C5.93718 41.0516 5.78179 41.0516 5.63097 41.0821C5.55597 41.0973 5.48214 41.1196 5.41066 41.1489C5.34023 41.1782 5.27238 41.2145 5.2091 41.2567C5.14452 41.2989 5.08476 41.3481 5.03085 41.402C4.97695 41.4559 4.92773 41.5157 4.88554 41.5802C4.84218 41.6434 4.80702 41.7114 4.77773 41.7829C4.74843 41.8532 4.72499 41.927 4.71105 42.002C4.6957 42.077 4.68761 42.1544 4.68761 42.2305C4.68761 42.3079 4.6957 42.3841 4.71105 42.4602C4.72499 42.5352 4.74843 42.6091 4.77773 42.6794C4.80702 42.7497 4.84218 42.8177 4.88554 42.8821C4.92773 42.9454 4.97695 43.0052 5.03085 43.0602C5.19533 43.2232 5.40397 43.3345 5.63097 43.3802C5.70597 43.3954 5.78331 43.4024 5.85949 43.4024C6.01311 43.4028 6.16526 43.3725 6.30702 43.3134C6.37801 43.2842 6.44592 43.2481 6.50976 43.2055C6.57421 43.1622 6.63398 43.1141 6.68788 43.0602C6.74191 43.0052 6.79113 42.9454 6.8332 42.8821C6.87538 42.8177 6.91171 42.7497 6.94101 42.6794C6.97031 42.6091 6.99374 42.5352 7.00898 42.4602C7.02421 42.3841 7.03124 42.3079 7.03124 42.2305C7.03124 41.9223 6.90585 41.62 6.68777 41.402Z" />
</symbol>

<symbol id="e-mail" viewBox="0 0 40 32">
<title>E-mail</title>
<path d="M39.315 3H0.684964C0.5033 3 0.329077 3.07325 0.200621 3.20362C0.0721657 3.334 0 3.51084 0 3.69522V28.3048C0 28.4892 0.0721657 28.666 0.200621 28.7964C0.329077 28.9268 0.5033 29 0.684964 29H39.315C39.4967 29 39.6709 28.9268 39.7994 28.7964C39.9278 28.666 40 28.4892 40 28.3048V3.69522C40 3.51084 39.9278 3.334 39.7994 3.20362C39.6709 3.07325 39.4967 3 39.315 3ZM32.5774 18.0331C32.6846 18.5259 32.7954 19.0355 32.6513 19.2882C32.4966 19.5596 31.9966 19.7173 31.5131 19.8699C31.1316 19.9902 30.7373 20.1147 30.3857 20.3212C30.0461 20.5206 29.7523 20.8001 29.4683 21.0704C29.0772 21.4426 28.7079 21.794 28.374 21.794C28.04 21.794 27.6706 21.4425 27.2797 21.0704C26.9956 20.8001 26.7018 20.5205 26.3622 20.3212C26.0107 20.1147 25.6163 19.9903 25.2348 19.8699C24.7513 19.7173 24.2513 19.5596 24.0967 19.2882C23.9526 19.0355 24.0633 18.5259 24.1705 18.0331C24.2584 17.6285 24.3493 17.2103 24.3493 16.7821C24.3493 16.354 24.2584 15.9356 24.1705 15.5311C24.0633 15.0383 23.9526 14.5288 24.0967 14.2759C24.2513 14.0046 24.7513 13.8468 25.2348 13.6942C25.6163 13.5739 26.0107 13.4494 26.3622 13.243C26.7018 13.0435 26.9956 12.764 27.2797 12.4937C27.6706 12.1216 28.04 11.7701 28.374 11.7701C28.7079 11.7701 29.0773 12.1216 29.4683 12.4937C29.7523 12.764 30.0461 13.0435 30.3857 13.243C30.7373 13.4493 31.1316 13.5738 31.5131 13.6941C31.9966 13.8467 32.4966 14.0045 32.6512 14.2758C32.7954 14.5286 32.6846 15.0381 32.5774 15.5309C32.4895 15.9354 32.3986 16.3537 32.3986 16.7819C32.3986 17.2102 32.4895 17.6286 32.5774 18.0331ZM30.5975 11.6608C30.5345 11.6024 30.4705 11.5416 30.4053 11.4795C29.8904 10.9896 29.2497 10.3798 28.374 10.3798C27.4982 10.3798 26.8574 10.9896 26.3426 11.4795C26.1045 11.7061 25.8796 11.9201 25.6761 12.0396C25.4574 12.168 25.1518 12.2645 24.8281 12.3666C24.1275 12.5876 23.3336 12.8381 22.9109 13.5797C22.5001 14.3004 22.6768 15.1134 22.8328 15.8307C22.9081 16.1777 22.9794 16.5055 22.9794 16.7821C22.9794 17.0587 22.9081 17.3866 22.8328 17.7336C22.6975 18.3556 22.5473 19.0496 22.7775 19.693L19.9997 22.5464L2.32449 4.39044H37.6748L30.5975 11.6608ZM11.7007 16L1.36993 26.6116V5.38812L11.7007 16ZM12.6635 16.989L19.5124 24.0242C19.5761 24.0896 19.6519 24.1416 19.7356 24.177C19.8192 24.2125 19.9089 24.2308 19.9996 24.2308C20.0902 24.2308 20.18 24.2125 20.2636 24.177C20.3472 24.1416 20.4231 24.0896 20.4868 24.0242L23.6841 20.7398C24.044 20.9494 24.4495 21.0781 24.8281 21.1976C25.1518 21.2998 25.4575 21.3962 25.6761 21.5245C25.8796 21.644 26.1044 21.8581 26.3426 22.0846C26.8574 22.5746 27.4982 23.1844 28.374 23.1844C29.2496 23.1844 29.8904 22.5746 30.4053 22.0846C30.6434 21.858 30.8682 21.644 31.0718 21.5244C31.2043 21.4466 31.3691 21.3806 31.5502 21.3179L37.675 27.6094H2.32431L12.6635 16.989ZM32.9664 20.7946C33.3117 20.6108 33.6223 20.3612 33.8371 19.9846C34.2479 19.2639 34.0711 18.4508 33.9151 17.7336C33.8398 17.3866 33.7686 17.0587 33.7686 16.7821C33.7686 16.5055 33.8398 16.1777 33.9151 15.8307C34.0711 15.1134 34.2479 14.3005 33.837 13.5797C33.4142 12.8381 32.6203 12.5876 31.9197 12.3666L31.8559 12.3463L38.6301 5.38738V26.6122L32.9664 20.7946Z" />
<path d="M28.374 13.2424C26.451 13.2424 24.8865 14.8302 24.8865 16.782C24.8865 18.7337 26.451 20.3215 28.374 20.3215C30.297 20.3215 31.8614 18.7337 31.8614 16.782C31.8614 14.8302 30.2969 13.2424 28.374 13.2424ZM28.374 18.9311C27.2064 18.9311 26.2564 17.967 26.2564 16.782C26.2564 15.5969 27.2063 14.6328 28.374 14.6328C29.5416 14.6328 30.4915 15.5969 30.4915 16.782C30.4915 17.967 29.5415 18.9311 28.374 18.9311Z" />
</symbol>

<symbol id="phone" viewBox="0 0 40 32">
<title>Phone</title>
<path d="M39.9461 8.89543L37.5102 2.9049C37.4685 2.80251 37.4043 2.71139 37.3226 2.63868C37.2408 2.56598 37.1437 2.51367 37.0389 2.48585L34.111 1.70799C25.5388 -0.569376 14.4609 -0.569281 5.88906 1.70799L2.96105 2.48585C2.85626 2.51367 2.75918 2.56598 2.67743 2.63868C2.59568 2.71139 2.53147 2.80251 2.48984 2.9049L0.0539764 8.89543C-0.0131281 9.06038 -0.0178273 9.24503 0.0407965 9.41333L1.01509 12.2089C1.07166 12.3713 1.18339 12.5075 1.32986 12.5925C1.47633 12.6775 1.64776 12.7056 1.8128 12.6717L11.0692 10.7747C11.2084 10.7462 11.3359 10.675 11.4348 10.5706C11.5337 10.4661 11.5993 10.3334 11.623 10.19L12.4245 5.32594C16.8365 4.18994 23.1635 4.18994 27.5753 5.32594L28.3769 10.19C28.4006 10.3335 28.4662 10.4663 28.5651 10.5707C28.664 10.6751 28.7915 10.7463 28.9307 10.7748L38.187 12.6718C38.352 12.7056 38.5234 12.6774 38.6699 12.5924C38.8164 12.5075 38.9281 12.3714 38.9848 12.209L39.9592 9.41343C40.0178 9.2451 40.0131 9.06043 39.9461 8.89543ZM2.13193 11.1412L1.63183 9.70624L10.5973 7.78606L10.321 9.46295L2.13193 11.1412ZM11.6222 4.0568C11.4935 4.09314 11.3777 4.16636 11.2883 4.26784C11.1989 4.36933 11.1396 4.49486 11.1174 4.62969L10.848 6.26453L1.85991 8.1896L3.65015 3.78707L6.2409 3.09877C14.5991 0.878304 25.4007 0.878208 33.7593 3.09877L36.35 3.78707L38.1403 8.1896L29.1522 6.26453L28.8828 4.62969C28.8606 4.49487 28.8013 4.36936 28.7119 4.26788C28.6224 4.1664 28.5066 4.09318 28.378 4.0568C23.6016 2.70615 16.3984 2.70615 11.6222 4.0568ZM37.8681 11.1412L29.6792 9.46295L29.4028 7.78606L38.3682 9.70624L37.8681 11.1412Z"/>
<path d="M33.2901 13.1186C33.261 12.9842 33.1948 12.8612 33.0995 12.7643C33.0041 12.6673 32.8836 12.6005 32.7522 12.5717L27.9776 11.526L27.3764 7.51395C27.351 7.34431 27.2672 7.18959 27.1401 7.07781C27.013 6.96603 26.851 6.90458 26.6835 6.90458H24.814V5.96398C24.814 5.56724 24.5002 5.2456 24.1129 5.2456C23.7257 5.2456 23.4119 5.56724 23.4119 5.96398V6.90458H16.5882V5.96398C16.5882 5.56724 16.2744 5.2456 15.8871 5.2456C15.4999 5.2456 15.1861 5.56724 15.1861 5.96398V6.90458H13.3166C13.1491 6.90458 12.9871 6.96603 12.86 7.07781C12.7329 7.18959 12.6491 7.34431 12.6237 7.51395L12.0224 11.526L7.24791 12.5717C7.11654 12.6005 6.996 12.6673 6.90063 12.7643C6.80527 12.8612 6.73908 12.9842 6.70996 13.1186L3.46796 28.0878C3.45692 28.1389 3.45134 28.1911 3.45132 28.2434V31.2816C3.45132 31.4721 3.52519 31.6549 3.65666 31.7896C3.78814 31.9243 3.96645 32 4.15239 32H35.8477C36.0336 32 36.212 31.9243 36.3434 31.7896C36.4749 31.6549 36.5488 31.4721 36.5488 31.2816V28.2434C36.5488 28.1911 36.5432 28.1389 36.5321 28.0878L33.2901 13.1186ZM7.98131 13.8802L12.7885 12.8273C12.9276 12.7968 13.0544 12.7238 13.152 12.6178C13.2496 12.5118 13.3134 12.3779 13.335 12.2338L13.9183 8.34134H26.0819L26.6651 12.2338C26.6867 12.3779 26.7505 12.5118 26.8481 12.6178C26.9457 12.7238 27.0725 12.7968 27.2115 12.8273L32.0189 13.8802L34.9741 27.5251H5.0261L7.98131 13.8802ZM11.7966 28.9618L10.8935 30.5632H9.82782L10.7309 28.9618H11.7966ZM13.416 28.9618H28.6721L27.769 30.5632H12.513L13.416 28.9618ZM4.85345 28.9618H9.11142L8.20836 30.5632H4.85345V28.9618ZM29.3885 30.5632L30.2916 28.9618H35.1466V30.5632H29.3885Z"/>
<path d="M20 26.1606C24.1492 26.1606 27.5248 22.7016 27.5248 18.45C27.5248 14.1983 24.1492 10.7393 20 10.7393C15.8509 10.7393 12.4753 14.1983 12.4753 18.45C12.4753 22.7016 15.8509 26.1606 20 26.1606ZM20 12.1761C23.3761 12.1761 26.1227 14.9905 26.1227 18.45C26.1227 21.9094 23.3761 24.7238 20 24.7238C16.624 24.7238 13.8774 21.9094 13.8774 18.45C13.8774 14.9905 16.624 12.1761 20 12.1761Z"/>
<path d="M20 21.1847C21.4717 21.1847 22.6691 19.9578 22.6691 18.4497C22.6691 16.9416 21.4717 15.7147 20 15.7147C18.5283 15.7147 17.3309 16.9416 17.3309 18.4497C17.3309 19.9578 18.5283 21.1847 20 21.1847ZM20 17.1514C20.6987 17.1514 21.267 17.7338 21.267 18.4497C21.267 19.1656 20.6987 19.7479 20 19.7479C19.3014 19.7479 18.733 19.1656 18.733 18.4497C18.733 17.7339 19.3014 17.1514 20 17.1514Z"/>
</symbol>

<symbol id="marker" viewBox="0 0 22 32">
<title>Marker</title>
<path d="M11 0C4.93475 0 3.05176e-05 4.78519 3.05176e-05 10.6667C3.05176e-05 12.4323 0.455262 14.1829 1.32067 15.7357L10.3985 31.6562C10.5193 31.8685 10.7496 32 11 32C11.2504 32 11.4807 31.8685 11.6016 31.6562L20.6827 15.7304C21.5448 14.1829 22 12.4323 22 10.6666C22 4.78519 17.0653 0 11 0ZM19.4762 15.0905L11 29.9557L2.52717 15.0964C1.7732 13.7435 1.37507 12.2116 1.37507 10.6667C1.37507 5.52019 5.69278 1.33337 11 1.33337C16.3073 1.33337 20.625 5.52025 20.625 10.6667C20.625 12.2116 20.2269 13.7435 19.4762 15.0905Z"/>
<path d="M11 5.33329C7.9674 5.33329 5.50008 7.72586 5.50008 10.6666C5.50008 13.6074 7.9674 16 11 16C14.0327 16 16.5 13.6074 16.5 10.6667C16.5 7.72592 14.0327 5.33329 11 5.33329ZM11 14.6667C8.72537 14.6667 6.87505 12.8724 6.87505 10.6667C6.87505 8.46092 8.72537 6.66667 11 6.66667C13.2747 6.66667 15.125 8.46092 15.125 10.6667C15.125 12.8724 13.2747 14.6667 11 14.6667Z"/>
</symbol>

<!-- Arrows -->
<symbol id="arrow-left" viewBox="0 0 24 24">
<title>Arrow Left</title>
<path
  stroke-linecap="round"
  stroke-linejoin="round"
  d="M6.75 15.75L3 12m0 0l3.75-3.75M3 12h18"
/>
</symbol>
<symbol id="arrow-right" viewBox="0 0 24 24">
<title>Arrow Right</title>
<path
stroke-linecap="round"
stroke-linejoin="round"
d="M17.25 8.25L21 12m0 0l-3.75 3.75M21 12H3"
/>
</symbol>

<symbol id="credit-card" viewBox="0 0 30 23">
<title>Credit Card</title>
<path d="M25.9815 23H4.01915C1.80285 23 0 21.2046 0 19.0001V3.9999C0 1.79421 1.80285 0 4.01915 0H25.9808C28.196 0 30 1.79421 30 3.9999V19.0001C30.0006 21.2052 28.1972 23 25.9815 23ZM4.01915 1.14285C2.43563 1.14285 1.14836 2.42396 1.14836 3.9999V19.0001C1.14836 20.5755 2.43563 21.8571 4.01915 21.8571H25.9808C27.5638 21.8571 28.8516 20.5755 28.8516 19.0001V3.9999C28.8516 2.42396 27.5638 1.14285 25.9808 1.14285H4.01915ZM20.7037 3.35993C22.1363 3.35993 23.2977 4.51532 23.2977 5.94153C23.2977 7.36774 22.1368 8.52376 20.7037 8.52376C19.2706 8.52376 18.1097 7.36783 18.1097 5.94153C18.1097 4.51523 19.2712 3.35993 20.7037 3.35993ZM24.3204 3.35993C25.7529 3.35993 26.9151 4.51532 26.9151 5.94153C26.9151 7.36774 25.7536 8.52376 24.3204 8.52376C22.8873 8.52376 21.7264 7.36783 21.7264 5.94153C21.7264 4.51523 22.8879 3.35993 24.3204 3.35993ZM3.0861 16.3339H7.8683V18.0481H3.0861V16.3339ZM9.43467 16.3339H14.2175V18.0481H9.43467V16.3339ZM15.782 16.3339H20.5659V18.0481H15.782V16.3339ZM22.1305 16.3339H26.9144V18.0481H22.1305V16.3339ZM3.0861 3.36046H12.1263V5.07474H3.0861V3.36046ZM3.0861 6.76208H7.86946V8.47637H3.0861V6.76208Z"/>
</symbol>
</svg>
